<svg width="48" height="48" viewBox="0 0 48 48" fill="none" xmlns="http://www.w3.org/2000/svg">
<path fill-rule="evenodd" clip-rule="evenodd" d="M17.2534 24.8845C17.2113 25.1829 17.3707 25.4878 17.3707 25.7978C17.3707 29.3721 20.8763 31.7304 24.1122 32C27.6178 31.7304 30.8538 29.3721 30.8538 25.7978C30.8538 25.4878 30.6263 25.1829 30.5841 24.8845H45.9549V32.2697V39.2809C45.4156 40.0899 45.1459 40.0899 44.6066 40.0899H4.15717C3.26359 40.0899 2.80886 40.0899 2.26953 39.2809V24.8845H17.2534Z" fill="#FDFDFD"/>
<path fill-rule="evenodd" clip-rule="evenodd" d="M31.1236 24.7191C31.1236 28.5913 27.9846 31.7303 24.1124 31.7303C20.2402 31.7303 17.1011 28.5913 17.1011 24.7191C17.1011 24.5937 17.1044 24.469 17.1109 24.3451H2L7.15619 9.09961C7.37848 8.44236 7.99507 8 8.68888 8H39.5358C40.2297 8 40.8462 8.44236 41.0685 9.09961L46.2247 24.3451H31.1138C31.1203 24.469 31.1236 24.5937 31.1236 24.7191Z" fill="#FDFDFD"/>
<path fill-rule="evenodd" clip-rule="evenodd" d="M30.5839 25.528C30.5839 28.5202 27.4175 31.7303 24.1119 31.7303C20.8064 31.7303 17.9097 29.3033 17.64 25.2584C17.64 25.1614 17.3648 24.5451 17.3704 24.4494L6.85352 24.4056L11.2551 13.7036C11.4449 13.1957 11.9713 12.8539 12.5635 12.8539H35.6604C36.2526 12.8539 36.779 13.1957 36.9687 13.7036L41.3704 24.4056L30.8535 24.4494C31.3486 24.4494 30.5839 25.4311 30.5839 25.528Z" fill="#EAC500"/>
<path d="M2.20018 24.2959L2.17383 24.3738V24.4561V38.7416C2.17383 39.539 2.82025 40.1854 3.61765 40.1854H44.6064C45.4038 40.1854 46.0502 39.539 46.0502 38.7416V24.4561V24.3738L46.0239 24.2959L40.9032 9.15544C40.7049 8.56894 40.1546 8.17419 39.5355 8.17419H8.68855C8.06942 8.17419 7.5192 8.56894 7.32084 9.15544L2.20018 24.2959Z" stroke="#303030"/>
<path d="M3.07812 24.1798C5.20122 24.1798 13.9643 24.1798 16.4237 24.1798C17.4356 24.1798 17.4356 24.891 17.4356 25.2585C17.4356 28.8328 20.3999 31.7304 24.0564 31.7304C27.713 31.7304 30.6772 28.8328 30.6772 25.2585C30.6772 24.891 30.6772 24.1798 31.6892 24.1798H45.1455" stroke="#303030" stroke-linecap="round" stroke-linejoin="round"/>
</svg>
