<svg width="29" height="29" viewBox="0 0 29 29" fill="none" xmlns="http://www.w3.org/2000/svg">
<path d="M22.0003 25.6666H3.33366V6.99992H15.3337V4.33325H3.33366C1.86699 4.33325 0.666992 5.53325 0.666992 6.99992V25.6666C0.666992 27.1333 1.86699 28.3333 3.33366 28.3333H22.0003C23.467 28.3333 24.667 27.1333 24.667 25.6666V13.6666H22.0003V25.6666ZM11.6137 21.4399L9.00033 18.2933L5.33366 22.9999H20.0003L15.2803 16.7199L11.6137 21.4399ZM24.667 4.33325V0.333252H22.0003V4.33325H18.0003C18.0137 4.34659 18.0003 6.99992 18.0003 6.99992H22.0003V10.9866C22.0137 10.9999 24.667 10.9866 24.667 10.9866V6.99992H28.667V4.33325H24.667Z" fill="#010101"/>
</svg>
