<svg width="24" height="24" viewBox="0 0 24 24" fill="none" xmlns="http://www.w3.org/2000/svg">
<path d="M13.3333 6H20V8.66667H13.3333V6ZM13.3333 15.3333H20V18H13.3333V15.3333ZM21.3333 0H2.66667C1.2 0 0 1.2 0 2.66667V21.3333C0 22.8 1.2 24 2.66667 24H21.3333C22.8 24 24 22.8 24 21.3333V2.66667C24 1.2 22.8 0 21.3333 0ZM21.3333 21.3333H2.66667V2.66667H21.3333V21.3333ZM10.6667 4H4V10.6667H10.6667V4ZM9.33333 9.33333H5.33333V5.33333H9.33333V9.33333ZM10.6667 13.3333H4V20H10.6667V13.3333ZM9.33333 18.6667H5.33333V14.6667H9.33333V18.6667Z" fill="#FDFDFD"/>
</svg>
