<svg width="32" height="28" viewBox="0 0 32 28" fill="none" xmlns="http://www.w3.org/2000/svg">
<path d="M2.66667 6.00008H0V12.6667H0.0133333L0 24.6667C0 26.1334 1.2 27.3334 2.66667 27.3334H26.6667V24.6667H2.66667V6.00008ZM9.33333 18.0001H28L23.3333 12.0001L20 16.0134L15.3333 10.0001L9.33333 18.0001ZM29.3333 3.33341H18.6667L16 0.666748H8C6.53333 0.666748 5.34667 1.86675 5.34667 3.33341L5.33333 19.3334C5.33333 20.8001 6.53333 22.0001 8 22.0001H29.3333C30.8 22.0001 32 20.8001 32 19.3334V6.00008C32 4.53341 30.8 3.33341 29.3333 3.33341ZM29.3333 19.3334H8V3.33341H14.8933L16.7733 5.21341L17.56 6.00008H29.3333V19.3334Z" fill="#010101"/>
</svg>
