<svg width="48" height="48" viewBox="0 0 48 48" fill="none" xmlns="http://www.w3.org/2000/svg">
<g clip-path="url(#clip0_2301_26406)">
<path fill-rule="evenodd" clip-rule="evenodd" d="M10.1133 35.5244L8.68583 35.7254C7.91858 35.8334 7.2092 35.2979 7.10137 34.5292L3.19654 6.69341C3.08872 5.92474 3.62328 5.21404 4.39052 5.10601L31.8275 1.24284C32.5947 1.13482 33.3041 1.67037 33.4119 2.43903C33.4119 2.43903 34.355 6.72171 34.4409 7.33393" fill="#BEBEBE"/>
<path fill-rule="evenodd" clip-rule="evenodd" d="M10.9987 33.9751L9.70253 34.1597C9.00584 34.2589 8.36259 33.7736 8.26579 33.0757L4.76032 7.80369C4.66352 7.10582 5.14983 6.45967 5.84652 6.36046L30.7605 2.81279C31.4572 2.71359 32.1005 3.1989 32.1973 3.89676L32.4985 6.06847C32.5148 6.18598 33.591 13.9861 35.7271 29.4689C35.8344 30.2464 35.2993 30.9648 34.532 31.0734C34.5237 31.0746 34.5155 31.0757 34.5072 31.0767L10.9987 33.9751Z" fill="#FDFDFD"/>
<path d="M10.111 35.5245L8.68356 35.7255C7.91632 35.8335 7.20693 35.2979 7.0991 34.5293L3.19428 6.69344C3.08645 5.92477 3.62101 5.21407 4.38825 5.10604L31.8252 1.24287C32.5925 1.13485 33.3018 1.6704 33.4097 2.43906C33.4097 2.43906 34.3026 6.75973 34.3885 7.37195" stroke="#303030" stroke-linecap="round"/>
<path d="M25.815 45.3926L25.8143 45.3925L15.3257 44.2392C13.4337 44.0312 12.0542 42.3492 12.2204 40.453L14.8537 10.4156C15.0245 8.4667 16.7597 7.03686 18.7053 7.24173L41.0759 9.59733C42.9811 9.79795 44.3716 11.4931 44.1958 13.4007L41.4182 43.5425C41.2385 45.4927 39.4937 46.9153 37.5472 46.6986L25.815 45.3926Z" fill="#BEBEBE" stroke="#303030"/>
<path fill-rule="evenodd" clip-rule="evenodd" d="M17.2065 12.7775C17.3794 11.1296 18.8553 9.93448 20.503 10.108L38.6029 12.0139C40.2507 12.1874 41.4463 13.6639 41.2734 15.3117L39.7365 29.9615C39.5636 31.6093 38.0877 32.8045 36.44 32.631L18.3401 30.7251C16.6924 30.5516 15.4967 29.0751 15.6696 27.4273L17.2065 12.7775Z" fill="#FDFDFD"/>
<path fill-rule="evenodd" clip-rule="evenodd" d="M18.4779 25.1163L19.5528 24.077C21.3545 22.3351 24.2965 22.6612 25.6745 24.7555L25.863 25.0419C26.1863 25.5334 26.8619 25.6411 27.3218 25.2745L30.5215 22.7234L30.8911 22.169C31.9616 20.5632 34.411 20.892 35.0215 22.7234V22.7234L37.6616 27.1363L38.1643 27.9768L37.9795 30.1679C37.9323 30.7285 37.432 31.1397 36.8729 31.0774L18.1909 28.9979C17.6493 28.9376 17.2555 28.4548 17.3054 27.9121L17.5119 25.6653L18.4779 25.1163Z" fill="#EAC500"/>
<path d="M20.4509 10.6053L38.5507 12.5112C39.9239 12.6557 40.9202 13.8861 40.7761 15.2593L39.2392 29.9092C39.0952 31.2823 37.8653 32.2783 36.4921 32.1337L18.3923 30.2278C17.0192 30.0832 16.0228 28.8528 16.1669 27.4797L17.7038 12.8298C17.8478 11.4566 19.0777 10.4607 20.4509 10.6053Z" stroke="#303030"/>
<ellipse cx="2.10434" cy="2.10816" rx="2.10434" ry="2.10816" transform="matrix(0.994502 0.10472 -0.104337 0.994542 20.9141 14.3914)" fill="#FFF006" stroke="#303030"/>
<path d="M17.7708 25.6594C19.1513 24.7042 21.9124 22.794 21.9124 22.794C22.4854 22.4068 23.2544 22.4954 23.7247 23.0026L26.2407 25.7162C26.3662 25.8517 26.5751 25.8665 26.7184 25.7501L32.0983 21.3828C32.7003 20.8941 33.5837 20.9868 34.0715 21.5899C34.103 21.6289 34.1324 21.6695 34.1596 21.7117C34.1596 21.7117 37.305 26.7119 38.04 27.8803" stroke="#303030" stroke-linecap="round"/>
<path d="M15.4434 33.7251L23.2462 34.5417" stroke="#303030" stroke-linecap="round"/>
<path d="M15.1934 36.1235L35.6811 38.2676" stroke="#303030" stroke-linecap="round"/>
<path d="M14.9453 38.5216L35.3272 40.6546" stroke="#303030" stroke-linecap="round"/>
<path d="M14.6953 40.9199L27.2868 42.2376" stroke="#303030" stroke-linecap="round"/>
</g>
<defs>
<clipPath id="clip0_2301_26406">
<rect width="48" height="48" fill="white"/>
</clipPath>
</defs>
</svg>
